<svg width="90" height="24" viewBox="0 0 90 24" fill="none" xmlns="http://www.w3.org/2000/svg">
<path d="M9.56003 0.406693V7.2201H13.6266V0.406693H23.1866V9.96672H16.3732V14.0333H23.1866V23.5933H13.6266V16.7799H9.56003V23.5933H0V14.0333H6.81341V9.96672H0V0.406693H9.56003ZM16.3732 20.8467H20.44V16.7799H16.3732V20.8467ZM2.74662 20.8467H6.81341V16.7799H2.74662V20.8467ZM9.56003 14.0333H13.6266V9.96672H9.56003V14.0333ZM16.3732 7.2201H20.44V3.15331H16.3732V7.2201ZM2.74662 7.2201H6.81341V3.15331H2.74662V7.2201Z" fill="#1A1A1A"/>
<path d="M43.6237 0C48.4173 0 52.2523 2.6844 53.211 7.15843H50.0473C49.2923 4.61034 47.2366 2.80555 43.6366 2.74975L43.464 2.74829C39.3735 2.74829 36.1776 5.9441 36.1776 11.9521C36.1776 17.8003 39.1817 21.2517 43.464 21.2517C46.5639 21.2517 50.3028 19.9733 50.3028 15.1797V14.5726H44.1669V11.7605H53.3707V23.5845H50.8141L50.6544 20.6765C49.1524 23.0413 46.436 24 43.3363 24C36.6572 24 32.8541 19.0147 32.8541 11.9521C32.8541 4.7617 37.1044 3.1539e-05 43.6237 0Z" fill="#1A1A1A"/>
<path fill-rule="evenodd" clip-rule="evenodd" d="M89.5808 0.415462V23.5845H86.6725V20.9959C85.618 22.8175 83.7965 24 81.0482 24C77.1174 24 73.6979 20.7404 73.6979 15.052C73.6979 9.3955 77.1174 6.10393 81.0482 6.10393L81.303 6.10734C83.9095 6.1784 85.6509 7.34332 86.6725 9.10798V0.415462H89.5808ZM81.7831 8.59645C78.8111 8.59648 76.8616 10.9614 76.8616 15.052C76.8616 19.1425 78.8111 21.5072 81.7831 21.5072C84.3716 21.5072 86.8005 19.5899 86.8005 15.052C86.8005 10.514 84.3716 8.59645 81.7831 8.59645Z" fill="#1A1A1A"/>
<path d="M64.743 6.29557C65.0306 6.29557 65.2864 6.29556 65.6059 6.32751V9.42738C64.9349 9.33152 64.4555 9.29962 63.9762 9.29962C61.2918 9.29962 59.9496 10.8016 59.9496 14.5726V23.5845H57.0414V6.39139H59.8855V9.39544C60.7483 7.44606 62.506 6.3595 64.743 6.29557Z" fill="#1A1A1A"/>
<path d="M70.7877 23.5845H67.8795V6.39139H70.7877V23.5845Z" fill="#1A1A1A"/>
<path d="M70.7877 3.9308H67.8795V0.415462H70.7877V3.9308Z" fill="#1A1A1A"/>
</svg>
