<svg width="130" height="24" viewBox="0 0 130 24" fill="none" xmlns="http://www.w3.org/2000/svg">
<path d="M11.2401 13.4128L1.24897 19.9011H6.4395L14.344 14.7679V22.0676L17.6801 19.9012V13.4128H27.6712L32.0245 10.5858H20.7838L30.7747 4.0977L25.5841 4.0977L17.6801 9.23066V1.93124L14.344 4.09772V10.5858H4.3532L0 13.4128H11.2401Z" fill="#1A1A1A"/>
<path d="M121.845 13.1442L126.27 8.17414H129.409L125.049 12.9045L129.91 19.9019H126.815L123.283 14.801L121.845 16.3487V19.9019H119.251V4.09778H121.845V13.1442Z" fill="#1A1A1A"/>
<path d="M117.923 8.10872C116.332 8.15232 115.22 8.93707 114.653 10.2886V8.17412H112.124V19.9018H114.718V13.8636C114.718 11.5529 115.634 10.681 117.422 10.681C117.749 10.681 118.054 10.7028 118.49 10.7682V8.13052C118.293 8.10872 118.097 8.10872 117.923 8.10872Z" fill="#1A1A1A"/>
<path fill-rule="evenodd" clip-rule="evenodd" d="M107.928 9.918C107.208 8.67547 105.835 7.95612 104.2 7.95612C101.388 7.95612 99.1427 10.2232 99.1427 14.0598C99.1427 17.9181 101.388 20.1852 104.2 20.1852C105.835 20.1852 107.208 19.4658 107.928 18.2015V19.9018H110.543V8.1741H107.928V9.918ZM108.058 14.0598C108.058 16.8936 106.576 18.0707 104.941 18.0707C103.154 18.0707 101.911 16.632 101.911 14.0598C101.911 11.5093 103.154 10.0706 104.941 10.0706C106.576 10.0706 108.058 11.2259 108.058 14.0598Z" fill="#1A1A1A"/>
<path fill-rule="evenodd" clip-rule="evenodd" d="M89.7475 23.3057L87.1534 23.7166V8.1741H89.7475V9.918C90.4886 8.67547 91.8402 7.95612 93.4969 7.95612C96.3089 7.95612 98.576 10.2232 98.576 14.0598C98.576 17.9181 96.3089 20.1852 93.4969 20.1852C91.8402 20.1852 90.4886 19.4658 89.7475 18.2015V23.3057ZM92.7339 18.0707C94.5432 18.0707 95.8075 16.632 95.8075 14.0598C95.8075 11.5093 94.5432 10.0706 92.7339 10.0706C91.099 10.0706 89.6385 11.2259 89.6385 14.0598C89.6385 16.8936 91.099 18.0707 92.7339 18.0707Z" fill="#1A1A1A"/>
<path d="M82.1134 12.948L80.2605 12.5993C79.1706 12.4031 78.6038 12.0325 78.6038 11.3131C78.6038 10.3758 79.6937 9.96162 80.8491 9.96162C82.1352 9.96162 83.1597 10.3976 83.4431 11.5965H85.9936C85.6012 9.22046 83.5957 7.91254 81.0235 7.91254C78.3204 7.91254 76.0751 9.17686 76.0751 11.4221C76.0751 13.493 77.7536 14.365 79.5847 14.7137L81.4594 15.0625C82.7674 15.3023 83.6393 15.7383 83.6393 16.6756C83.6393 17.613 82.5276 18.1579 81.1106 18.1579C79.5629 18.1579 78.6474 17.4604 78.3422 16.1089H75.77C76.0533 18.4195 77.9934 20.1852 81.0671 20.1852C83.9663 20.1852 86.1898 18.8555 86.1898 16.414C86.1898 14.2342 84.5331 13.4058 82.1134 12.948Z" fill="#1A1A1A"/>
<path d="M63.4582 10.0706C61.6925 10.0706 60.7116 11.2914 60.7116 13.6674V19.9019H58.1175V4.5086L60.7116 4.09778V9.85264C61.322 8.8281 62.5209 7.95615 64.4392 7.95615C67.3384 7.95615 68.3411 9.76545 68.3411 12.6211V19.9019H65.7471V13.3404C65.7471 11.5747 65.5291 10.0706 63.4582 10.0706Z" fill="#1A1A1A"/>
<path fill-rule="evenodd" clip-rule="evenodd" d="M53.821 9.91802C53.0798 8.67549 51.7719 7.95614 50.137 7.95614C47.3686 7.95614 45.0797 10.0488 45.0797 13.7764C45.0797 17.5476 47.3686 19.6185 50.137 19.6185C51.7719 19.6185 53.0798 18.9209 53.821 17.6566V19.0081C53.821 21.1226 52.6875 21.9509 50.9218 21.9509C49.3741 21.9509 48.6547 21.3406 48.3277 20.3378H45.7337C46.1697 22.6485 48.0225 24 50.9218 24C54.2134 24 56.3933 22.3869 56.3933 18.5939V8.17412H53.821V9.91802ZM53.93 13.7764C53.93 16.5012 52.5131 17.5258 50.8782 17.5258C49.1343 17.5258 47.8482 16.2396 47.8482 13.7764C47.8482 11.3567 49.1343 10.0706 50.8782 10.0706C52.5131 10.0706 53.93 11.0734 53.93 13.7764Z" fill="#1A1A1A"/>
<path d="M70.5244 16.8282C70.5244 19.3787 71.2219 19.9018 73.707 19.9018H76.0445L75.1516 17.8963H74.4699C73.3146 17.8963 73.1184 17.613 73.1184 16.4358V10.136H75.4727V8.17411H73.1184V5.12229H70.5244V8.17411H68.3862L69.2597 10.136L70.5244 10.136V16.8282Z" fill="#1A1A1A"/>
<path d="M41.4474 19.9018V8.17414H44.0415V19.9018H41.4474Z" fill="#1A1A1A"/>
<path d="M41.4474 4.09778V6.67002H44.0415V4.09778H41.4474Z" fill="#1A1A1A"/>
<path d="M37.0289 4.09778V19.9019H39.623V4.09778H37.0289Z" fill="#1A1A1A"/>
</svg>
