<svg width="429" height="80" viewBox="0 0 429 80" fill="none" xmlns="http://www.w3.org/2000/svg">
<path d="M46.7368 13.6588L56.4323 7.36252V31.7252L84.2523 13.6588H100.034L65.6543 35.985H103.17L90.8131 44.0098H56.4323V66.3372L46.7368 72.6336V48.2701L18.9157 66.3373H3.13386L37.5154 44.0098H0L12.3571 35.985H46.7368V13.6588Z" fill="#1A1A1A"/>
<path d="M401.141 43.814L415.891 27.2469H426.355L411.822 43.0147L428.026 66.3395H417.708L405.937 49.3364L401.141 54.4954V66.3395H392.494V13.6589H401.141V43.814Z" fill="#1A1A1A"/>
<path d="M388.068 27.0288C382.763 27.1741 379.058 29.79 377.168 34.2951V27.2468H368.74V66.3394H377.386V46.2118C377.386 38.5095 380.438 35.603 386.397 35.603C387.487 35.603 388.504 35.6757 389.957 35.8937V27.1015C389.303 27.0288 388.649 27.0288 388.068 27.0288Z" fill="#1A1A1A"/>
<path fill-rule="evenodd" clip-rule="evenodd" d="M354.75 33.0598C352.352 28.918 347.774 26.5201 342.325 26.5201C332.951 26.5201 325.467 34.0771 325.467 46.8657C325.467 59.727 332.951 67.284 342.325 67.284C347.774 67.284 352.352 64.8861 354.75 60.6716V66.3393H363.47V27.2467H354.75V33.0598ZM355.186 46.8657C355.186 56.3119 350.245 60.2357 344.795 60.2357C338.837 60.2357 334.695 55.4399 334.695 46.8657C334.695 38.3642 338.837 33.5684 344.795 33.5684C350.245 33.5684 355.186 37.4195 355.186 46.8657Z" fill="#1A1A1A"/>
<path fill-rule="evenodd" clip-rule="evenodd" d="M294.149 77.6858L285.502 79.0553V27.2467H294.149V33.0598C296.62 28.918 301.125 26.5201 306.647 26.5201C316.021 26.5201 323.578 34.077 323.578 46.8657C323.578 59.727 316.021 67.284 306.647 67.284C301.125 67.284 296.62 64.8861 294.149 60.6716V77.6858ZM304.104 60.2357C310.135 60.2357 314.35 55.4399 314.35 46.8657C314.35 38.3642 310.135 33.5684 304.104 33.5684C298.654 33.5684 293.786 37.4195 293.786 46.8657C293.786 56.3119 298.654 60.2357 304.104 60.2357Z" fill="#1A1A1A"/>
<path d="M268.702 43.16L262.526 41.9974C258.893 41.3434 257.003 40.1081 257.003 37.7103C257.003 34.5858 260.637 33.2052 264.488 33.2052C268.775 33.2052 272.19 34.6584 273.135 38.6549H281.636C280.328 30.7346 273.643 26.3749 265.069 26.3749C256.059 26.3749 248.575 30.5893 248.575 38.0736C248.575 44.9765 254.17 47.883 260.273 49.0457L266.522 50.2083C270.882 51.0075 273.789 52.4608 273.789 55.5853C273.789 58.7098 270.083 60.5264 265.36 60.5264C260.201 60.5264 257.149 58.2012 256.131 53.6961H247.557C248.502 61.3983 254.969 67.284 265.214 67.284C274.878 67.284 282.29 62.8516 282.29 54.7133C282.29 47.4471 276.768 44.6859 268.702 43.16Z" fill="#1A1A1A"/>
<path d="M206.518 33.5685C200.632 33.5685 197.362 37.6376 197.362 45.5579V66.3395H188.716V15.0283L197.362 13.6589V32.8419C199.397 29.4267 203.393 26.5202 209.788 26.5202C219.452 26.5202 222.794 32.5513 222.794 42.0701V66.3395H214.148V44.468C214.148 38.5823 213.421 33.5685 206.518 33.5685Z" fill="#1A1A1A"/>
<path fill-rule="evenodd" clip-rule="evenodd" d="M174.394 33.0598C171.923 28.9181 167.563 26.5202 162.114 26.5202C152.885 26.5202 145.256 33.4958 145.256 45.9212C145.256 58.4918 152.885 65.3948 162.114 65.3948C167.563 65.3948 171.923 63.0696 174.394 58.8551V63.3602C174.394 70.4085 170.615 73.1697 164.729 73.1697C159.57 73.1697 157.173 71.1352 156.083 67.7927H147.436C148.889 75.4949 155.065 80 164.729 80C175.702 80 182.968 74.623 182.968 61.9796V27.2468H174.394V33.0598ZM174.757 45.9212C174.757 55.004 170.034 58.4192 164.584 58.4192C158.771 58.4192 154.484 54.1321 154.484 45.9212C154.484 37.8556 158.771 33.5685 164.584 33.5685C170.034 33.5685 174.757 36.911 174.757 45.9212Z" fill="#1A1A1A"/>
<path d="M230.072 56.0939C230.072 64.5955 232.397 66.3394 240.681 66.3394H248.472L245.496 59.6544H243.224C239.373 59.6544 238.719 58.7098 238.719 54.786V33.7864H246.566V27.2468H238.719V17.074H230.072V27.2468H222.945L225.856 33.7864L230.072 33.7864V56.0939Z" fill="#1A1A1A"/>
<path d="M133.148 66.3394V27.2469H141.795V66.3394H133.148Z" fill="#1A1A1A"/>
<path d="M133.148 13.6589V22.2331H141.795V13.6589H133.148Z" fill="#1A1A1A"/>
<path d="M118.42 13.6589V66.3395H127.067V13.6589H118.42Z" fill="#1A1A1A"/>
</svg>
