<svg width="434" height="80" viewBox="0 0 434 80" fill="none" xmlns="http://www.w3.org/2000/svg">
<path d="M37.4669 44.7095L4.16323 66.3371H21.465L47.8133 49.2264V73.5588L58.9336 66.3372V44.7095H92.2375L106.748 35.2861H69.2794L102.582 13.659L85.2804 13.659L58.9336 30.7689V6.43749L47.8133 13.6591V35.2861H14.5107L7.62939e-06 44.7095H37.4669Z" fill="#1A1A1A"/>
<path d="M406.149 43.8142L420.9 27.2471H431.363L416.831 43.0149L433.034 66.3395H422.716L410.945 49.3365L406.149 54.4955V66.3395H397.502V13.6593H406.149V43.8142Z" fill="#1A1A1A"/>
<path d="M393.076 27.0291C387.772 27.1744 384.066 29.7902 382.177 34.2953V27.2471H373.748V66.3394H382.395V46.2119C382.395 38.5097 385.447 35.6032 391.405 35.6032C392.495 35.6032 393.512 35.6759 394.966 35.8939V27.1017C394.312 27.0291 393.658 27.0291 393.076 27.0291Z" fill="#1A1A1A"/>
<path fill-rule="evenodd" clip-rule="evenodd" d="M359.759 33.06C357.361 28.9183 352.783 26.5204 347.333 26.5204C337.96 26.5204 330.476 34.0773 330.476 46.8659C330.476 59.7271 337.96 67.284 347.333 67.284C352.783 67.284 357.361 64.8862 359.759 60.6717V66.3394H368.478V27.247H359.759V33.06ZM360.195 46.8659C360.195 56.312 355.254 60.2358 349.804 60.2358C343.846 60.2358 339.704 55.44 339.704 46.8659C339.704 38.3644 343.846 33.5686 349.804 33.5686C355.254 33.5686 360.195 37.4198 360.195 46.8659Z" fill="#1A1A1A"/>
<path fill-rule="evenodd" clip-rule="evenodd" d="M299.158 77.6858L290.511 79.0553V27.247H299.158V33.06C301.629 28.9183 306.134 26.5204 311.656 26.5204C321.03 26.5204 328.587 34.0773 328.587 46.8659C328.587 59.7271 321.03 67.284 311.656 67.284C306.134 67.284 301.629 64.8861 299.158 60.6717V77.6858ZM309.113 60.2357C315.144 60.2357 319.358 55.44 319.358 46.8659C319.358 38.3644 315.144 33.5686 309.113 33.5686C303.663 33.5686 298.795 37.4198 298.795 46.8659C298.795 56.312 303.663 60.2357 309.113 60.2357Z" fill="#1A1A1A"/>
<path d="M273.711 43.1601L267.535 41.9976C263.902 41.3436 262.013 40.1083 262.013 37.7105C262.013 34.586 265.646 33.2054 269.497 33.2054C273.784 33.2054 277.199 34.6586 278.144 38.6551H286.645C285.337 30.7349 278.652 26.3751 270.078 26.3751C261.068 26.3751 253.584 30.5896 253.584 38.0738C253.584 44.9767 259.179 47.8832 265.282 49.0458L271.531 50.2084C275.891 51.0077 278.798 52.4609 278.798 55.5854C278.798 58.7099 275.092 60.5265 270.369 60.5265C265.21 60.5265 262.158 58.2013 261.141 53.6962H252.567C253.511 61.3984 259.978 67.2841 270.224 67.2841C279.888 67.2841 287.299 62.8517 287.299 54.7135C287.299 47.4472 281.777 44.6861 273.711 43.1601Z" fill="#1A1A1A"/>
<path d="M211.527 33.5688C205.642 33.5688 202.372 37.6379 202.372 45.5581V66.3395H193.725V15.0287L202.372 13.6593V32.8421C204.407 29.427 208.403 26.5205 214.797 26.5205C224.461 26.5205 227.804 32.5515 227.804 42.0703V66.3395H219.157V44.4681C219.157 38.5825 218.43 33.5688 211.527 33.5688Z" fill="#1A1A1A"/>
<path fill-rule="evenodd" clip-rule="evenodd" d="M179.403 33.0601C176.933 28.9183 172.573 26.5205 167.123 26.5205C157.895 26.5205 150.266 33.4961 150.266 45.9213C150.266 58.4919 157.895 65.3949 167.123 65.3949C172.573 65.3949 176.933 63.0696 179.403 58.8552V63.3603C179.403 70.4086 175.625 73.1697 169.739 73.1697C164.58 73.1697 162.182 71.1352 161.092 67.7927H152.446C153.899 75.4949 160.075 80 169.739 80C180.711 80 187.978 74.623 187.978 61.9797V27.2471H179.403V33.0601ZM179.767 45.9213C179.767 55.0041 175.044 58.4193 169.594 58.4193C163.781 58.4193 159.494 54.1322 159.494 45.9213C159.494 37.8558 163.781 33.5687 169.594 33.5687C175.044 33.5687 179.767 36.9112 179.767 45.9213Z" fill="#1A1A1A"/>
<path d="M235.081 56.094C235.081 64.5955 237.406 66.3394 245.69 66.3394H253.482L250.505 59.6545H248.233C244.382 59.6545 243.728 58.7098 243.728 54.7861V33.7867H251.576V27.247H243.728V17.0743H235.081V27.247H227.954L230.866 33.7867L235.081 33.7867V56.094Z" fill="#1A1A1A"/>
<path d="M138.158 66.3395V27.2471H146.805V66.3395H138.158Z" fill="#1A1A1A"/>
<path d="M138.158 13.6593V22.2334H146.805V13.6593H138.158Z" fill="#1A1A1A"/>
<path d="M123.43 13.6593V66.3395H132.077V13.6593H123.43Z" fill="#1A1A1A"/>
</svg>
