<svg width="374" height="80" viewBox="0 0 374 80" fill="none" xmlns="http://www.w3.org/2000/svg">
<path d="M358.718 16.3856L340.93 36.3637V1.90735e-05H330.503V63.5269H340.93V49.2443L346.713 43.023L360.908 63.5269H373.351L353.811 35.3998L371.335 16.3856H358.718Z" fill="#1A1A1A"/>
<path d="M325.166 16.1226C318.769 16.2978 314.3 19.4523 312.022 24.8849V16.3855H301.858V63.5268H312.285V39.2551C312.285 29.9671 315.965 26.4621 323.15 26.4621C324.465 26.4621 325.691 26.5498 327.444 26.8126V16.2102C326.655 16.1226 325.867 16.1226 325.166 16.1226Z" fill="#1A1A1A"/>
<path fill-rule="evenodd" clip-rule="evenodd" d="M270.004 15.5092C276.576 15.5092 282.096 18.4008 284.988 23.3953V16.3854H295.503V63.5267H284.988V56.6921C282.096 61.7743 276.576 64.6658 270.004 64.6658C258.701 64.6658 249.676 55.553 249.676 40.0437C249.676 24.622 258.701 15.5092 270.004 15.5092ZM272.984 56.1664C279.555 56.1664 285.514 51.4347 285.514 40.0437C285.514 28.6527 279.555 24.0086 272.984 24.0086C265.798 24.0086 260.804 29.7918 260.804 40.0437C260.804 50.3832 265.798 56.1664 272.984 56.1664Z" fill="#1A1A1A"/>
<path fill-rule="evenodd" clip-rule="evenodd" d="M211.91 77.2093L201.483 78.8608V16.3854H211.91V23.3953C214.889 18.4008 220.322 15.5092 226.981 15.5092C238.285 15.5092 247.398 24.622 247.398 40.0437C247.398 55.553 238.285 64.6658 226.981 64.6658C220.322 64.6658 214.889 61.7743 211.91 56.6921V77.2093ZM223.915 56.1664C231.187 56.1664 236.269 50.3832 236.269 40.0437C236.269 29.7918 231.187 24.0086 223.915 24.0086C217.343 24.0086 211.472 28.6527 211.472 40.0437C211.472 51.4347 217.343 56.1664 223.915 56.1664Z" fill="#1A1A1A"/>
<path d="M173.776 34.173L181.224 35.575C190.95 37.4151 197.609 40.7448 197.609 49.5071C197.609 59.3209 188.672 64.6659 177.018 64.6659C164.663 64.6659 156.864 57.5684 155.725 48.2804H166.065C167.292 53.713 170.972 56.5169 177.193 56.5169C182.889 56.5169 187.357 54.3264 187.357 50.5586C187.357 46.7908 183.852 45.0383 178.595 44.0744L171.059 42.6725C163.699 41.2705 156.952 37.7656 156.952 29.4414C156.952 20.4162 165.977 15.334 176.843 15.334C187.182 15.334 195.243 20.5914 196.821 30.1423H186.569C185.43 25.3231 181.311 23.5706 176.142 23.5706C171.498 23.5706 167.116 25.2354 167.116 29.0032C167.116 31.8948 169.395 33.3844 173.776 34.173Z" fill="#1A1A1A"/>
<path d="M106.237 24.0088C99.1391 24.0088 95.196 28.9157 95.196 38.4666V63.5269H84.7688V1.65138L95.196 2.14577e-05V23.1325C97.6495 19.0143 102.469 15.5093 110.18 15.5093C121.833 15.5093 125.864 22.7821 125.864 34.2607V63.5269H115.437V37.1523C115.437 30.0548 114.561 24.0088 106.237 24.0088Z" fill="#1A1A1A"/>
<path fill-rule="evenodd" clip-rule="evenodd" d="M52.6899 15.5093C59.2616 15.5093 64.519 18.4008 67.4982 23.3954V16.3855H77.8378V58.2694C77.8378 73.5159 69.0754 80 55.8443 80C44.1904 80 36.7424 74.5673 34.99 65.2793H45.4172C46.7315 69.31 49.6231 71.7634 55.8443 71.7634C62.9418 71.7634 67.4982 68.4337 67.4982 59.9343V54.5016C64.519 59.5838 59.2616 62.3877 52.6899 62.3877C41.5617 62.3877 32.3613 54.0635 32.3613 38.9047C32.3613 23.9211 41.5617 15.5093 52.6899 15.5093ZM55.6691 53.9759C62.2408 53.9759 67.9363 49.8576 67.9363 38.9047C67.9363 28.0394 62.2408 24.0087 55.6691 24.0087C48.6592 24.0087 43.4894 29.1785 43.4894 38.9047C43.4894 48.8061 48.6592 53.9759 55.6691 53.9759Z" fill="#1A1A1A"/>
<path d="M134.64 51.1719C134.64 61.4238 137.444 63.5268 147.433 63.5268H156.829L153.24 55.4654H150.5C145.856 55.4654 145.067 54.3263 145.067 49.5946V24.2715H154.53V16.3854H145.067V4.11818H134.64V16.3854H126.045L129.556 24.2716L134.64 24.2715V51.1719Z" fill="#1A1A1A"/>
<path d="M17.7607 16.3855V63.5269H28.1879V16.3855H17.7607Z" fill="#1A1A1A"/>
<path d="M17.7607 0V10.3395H28.1879V0H17.7607Z" fill="#1A1A1A"/>
<path d="M0 63.5269V1.90735e-05H10.4272V63.5269H0Z" fill="#1A1A1A"/>
</svg>
