<svg width="129" height="24" viewBox="0 0 129 24" fill="none" xmlns="http://www.w3.org/2000/svg">
<path d="M14.021 4.09765L16.9297 2.20876V9.51755L25.2757 4.09763H30.0102L19.6963 10.7955H30.9511L27.2439 13.2029H16.9297V19.9012L14.021 21.7901V14.481L5.67471 19.9012H0.940157L11.2546 13.2029H0L3.70714 10.7955H14.021V4.09765Z" fill="#1A1A1A"/>
<path d="M120.342 13.1442L124.767 8.17406H127.906L123.547 12.9044L128.408 19.9018H125.312L121.781 14.8009L120.342 16.3486V19.9018H117.748V4.09768H120.342V13.1442Z" fill="#1A1A1A"/>
<path d="M116.42 8.10864C114.829 8.15224 113.717 8.937 113.151 10.2885V8.17404H110.622V19.9018H113.216V13.8635C113.216 11.5529 114.131 10.6809 115.919 10.6809C116.246 10.6809 116.551 10.7027 116.987 10.7681V8.13044C116.791 8.10864 116.595 8.10864 116.42 8.10864Z" fill="#1A1A1A"/>
<path fill-rule="evenodd" clip-rule="evenodd" d="M106.425 9.91793C105.706 8.6754 104.332 7.95604 102.697 7.95604C99.8854 7.95604 97.6401 10.2231 97.6401 14.0597C97.6401 17.9181 99.8854 20.1852 102.697 20.1852C104.332 20.1852 105.706 19.4658 106.425 18.2015V19.9018H109.041V8.17402H106.425V9.91793ZM106.556 14.0597C106.556 16.8936 105.073 18.0707 103.439 18.0707C101.651 18.0707 100.409 16.632 100.409 14.0597C100.409 11.5092 101.651 10.0705 103.439 10.0705C105.073 10.0705 106.556 11.2259 106.556 14.0597Z" fill="#1A1A1A"/>
<path fill-rule="evenodd" clip-rule="evenodd" d="M88.2448 23.3057L85.6507 23.7166V8.17402H88.2448V9.91793C88.9859 8.6754 90.3375 7.95604 91.9942 7.95604C94.8062 7.95604 97.0733 10.2231 97.0733 14.0597C97.0733 17.9181 94.8062 20.1852 91.9942 20.1852C90.3375 20.1852 88.9859 19.4658 88.2448 18.2015V23.3057ZM91.2312 18.0707C93.0405 18.0707 94.3049 16.632 94.3049 14.0597C94.3049 11.5092 93.0405 10.0705 91.2312 10.0705C89.5963 10.0705 88.1358 11.2259 88.1358 14.0597C88.1358 16.8936 89.5963 18.0707 91.2312 18.0707Z" fill="#1A1A1A"/>
<path d="M80.6106 12.948L78.7577 12.5992C77.6678 12.403 77.101 12.0324 77.101 11.3131C77.101 10.3757 78.191 9.96155 79.3463 9.96155C80.6324 9.96155 81.657 10.3975 81.9404 11.5965H84.4908C84.0984 9.22039 82.093 7.91246 79.5207 7.91246C76.8176 7.91246 74.5724 9.17679 74.5724 11.4221C74.5724 13.493 76.2509 14.3649 78.082 14.7137L79.9567 15.0625C81.2646 15.3023 82.1366 15.7382 82.1366 16.6756C82.1366 17.6129 81.0248 18.1579 79.6079 18.1579C78.0602 18.1579 77.1446 17.4603 76.8394 16.1088H74.2672C74.5506 18.4195 76.4907 20.1852 79.5643 20.1852C82.4635 20.1852 84.687 18.8555 84.687 16.414C84.687 14.2341 83.0303 13.4058 80.6106 12.948Z" fill="#1A1A1A"/>
<path d="M61.9554 10.0706C60.1897 10.0706 59.2087 11.2913 59.2087 13.6674V19.9018H56.6147V4.5085L59.2087 4.09768V9.85257C59.8191 8.82802 61.018 7.95607 62.9363 7.95607C65.8356 7.95607 66.8383 9.76538 66.8383 12.621V19.9018H64.2443V13.3404C64.2443 11.5747 64.0263 10.0706 61.9554 10.0706Z" fill="#1A1A1A"/>
<path fill-rule="evenodd" clip-rule="evenodd" d="M52.3181 9.91795C51.5769 8.67542 50.269 7.95605 48.6341 7.95605C45.8656 7.95605 43.5768 10.0487 43.5768 13.7763C43.5768 17.5475 45.8656 19.6184 48.6341 19.6184C50.269 19.6184 51.5769 18.9209 52.3181 17.6565V19.0081C52.3181 21.1226 51.1846 21.9509 49.4188 21.9509C47.8711 21.9509 47.1518 21.3405 46.8248 20.3378H44.2307C44.6667 22.6485 46.5196 24 49.4188 24C52.7105 24 54.8904 22.3869 54.8904 18.5939V8.17404H52.3181V9.91795ZM52.4271 13.7763C52.4271 16.5012 51.0102 17.5257 49.3752 17.5257C47.6313 17.5257 46.3452 16.2396 46.3452 13.7763C46.3452 11.3567 47.6313 10.0705 49.3752 10.0705C51.0102 10.0705 52.4271 11.0733 52.4271 13.7763Z" fill="#1A1A1A"/>
<path d="M69.0216 16.8282C69.0216 19.3786 69.7191 19.9018 72.2042 19.9018H74.5417L73.6488 17.8963H72.9671C71.8118 17.8963 71.6156 17.6129 71.6156 16.4358V10.1359H73.9699V8.17403H71.6156V5.12219H69.0216V8.17403H66.8834L67.7569 10.1359L69.0216 10.1359V16.8282Z" fill="#1A1A1A"/>
<path d="M39.9444 19.9018V8.17406H42.5385V19.9018H39.9444Z" fill="#1A1A1A"/>
<path d="M39.9444 4.09767V6.66994H42.5385V4.09767H39.9444Z" fill="#1A1A1A"/>
<path d="M35.5259 4.09768V19.9018H38.12V4.09768H35.5259Z" fill="#1A1A1A"/>
</svg>
