<svg width="112" height="24" viewBox="0 0 112 24" fill="none" xmlns="http://www.w3.org/2000/svg">
<path d="M107.615 4.91567L102.279 10.9091V5.72205e-06H99.1509V19.0581H102.279V14.7733L104.014 12.9069L108.272 19.0581H112.005L106.143 10.6199L111.401 4.91567H107.615Z" fill="#1A1A1A"/>
<path d="M97.5497 4.83678C95.6307 4.88935 94.2901 5.83568 93.6066 7.46548V4.91564H90.5573V19.058H93.6855V11.7765C93.6855 8.99012 94.7895 7.93864 96.9451 7.93864C97.3394 7.93864 97.7074 7.96493 98.2331 8.04379V4.86307C97.9965 4.83678 97.76 4.83678 97.5497 4.83678Z" fill="#1A1A1A"/>
<path fill-rule="evenodd" clip-rule="evenodd" d="M81.0013 4.65276C82.9728 4.65276 84.6289 5.52023 85.4964 7.01858V4.91563H88.6508V19.058H85.4964V17.0076C84.6289 18.5323 82.9728 19.3998 81.0013 19.3998C77.6103 19.3998 74.9027 16.6659 74.9027 12.0131C74.9027 7.3866 77.6103 4.65276 81.0013 4.65276ZM81.8951 16.8499C83.8666 16.8499 85.6541 15.4304 85.6541 12.0131C85.6541 8.5958 83.8666 7.20259 81.8951 7.20259C79.7395 7.20259 78.2412 8.93753 78.2412 12.0131C78.2412 15.115 79.7395 16.8499 81.8951 16.8499Z" fill="#1A1A1A"/>
<path fill-rule="evenodd" clip-rule="evenodd" d="M63.5731 23.1628L60.4449 23.6582V4.91563H63.5731V7.01858C64.4668 5.52023 66.0966 4.65276 68.0944 4.65276C71.4854 4.65276 74.2193 7.3866 74.2193 12.0131C74.2193 16.6659 71.4854 19.3998 68.0944 19.3998C66.0966 19.3998 64.4668 18.5323 63.5731 17.0076V23.1628ZM67.1744 16.8499C69.3562 16.8499 70.8808 15.115 70.8808 12.0131C70.8808 8.93753 69.3562 7.20259 67.1744 7.20259C65.2028 7.20259 63.4416 8.5958 63.4416 12.0131C63.4416 15.4304 65.2028 16.8499 67.1744 16.8499Z" fill="#1A1A1A"/>
<path d="M52.1327 10.2519L54.3671 10.6725C57.285 11.2245 59.2828 12.2234 59.2828 14.8521C59.2828 17.7963 56.6015 19.3998 53.1054 19.3998C49.3989 19.3998 47.0593 17.2705 46.7176 14.4841H49.8195C50.1875 16.1139 51.2915 16.9551 53.1579 16.9551C54.8666 16.9551 56.2072 16.2979 56.2072 15.1676C56.2072 14.0372 55.1557 13.5115 53.5785 13.2223L51.3178 12.8017C49.1097 12.3811 47.0856 11.3297 47.0856 8.83241C47.0856 6.12485 49.7932 4.6002 53.0528 4.6002C56.1546 4.6002 58.573 6.17742 59.0462 9.0427H55.9706C55.6289 7.59692 54.3934 7.07118 52.8425 7.07118C51.4493 7.07118 50.1349 7.57063 50.1349 8.70097C50.1349 9.56844 50.8184 10.0153 52.1327 10.2519Z" fill="#1A1A1A"/>
<path d="M31.871 7.20264C29.7417 7.20264 28.5588 8.67471 28.5588 11.54V19.0581H25.4306V0.495415L28.5588 6.4373e-06V6.93977C29.2948 5.70428 30.7406 4.6528 33.0539 4.6528C36.55 4.6528 37.7592 6.83462 37.7592 10.2782V19.0581H34.6311V11.1457C34.6311 9.01644 34.3682 7.20264 31.871 7.20264Z" fill="#1A1A1A"/>
<path fill-rule="evenodd" clip-rule="evenodd" d="M15.807 4.65278C17.7785 4.65278 19.3557 5.52025 20.2495 7.01861V4.91565H23.3513V17.4808C23.3513 22.0548 20.7226 24 16.7533 24C13.2571 24 11.0227 22.3702 10.497 19.5838H13.6251C14.0195 20.793 14.8869 21.529 16.7533 21.529C18.8825 21.529 20.2495 20.5301 20.2495 17.9803V16.3505C19.3557 17.8751 17.7785 18.7163 15.807 18.7163C12.4685 18.7163 9.70839 16.2191 9.70839 11.6714C9.70839 7.17633 12.4685 4.65278 15.807 4.65278ZM16.7007 16.1928C18.6722 16.1928 20.3809 14.9573 20.3809 11.6714C20.3809 8.41182 18.6722 7.20262 16.7007 7.20262C14.5978 7.20262 13.0468 8.75355 13.0468 11.6714C13.0468 14.6418 14.5978 16.1928 16.7007 16.1928Z" fill="#1A1A1A"/>
<path d="M40.392 15.3516C40.392 18.4271 41.2332 19.058 44.2299 19.058H47.0487L45.9719 16.6396H45.1499C43.7567 16.6396 43.5201 16.2979 43.5201 14.8784V7.28146H46.3591V4.91563H43.5201V1.23545H40.392V4.91563H37.8136L38.8669 7.28147L40.392 7.28146V15.3516Z" fill="#1A1A1A"/>
<path d="M5.32822 4.91566V19.0581H8.45637V4.91566H5.32822Z" fill="#1A1A1A"/>
<path d="M5.32822 0V3.10186H8.45637V0H5.32822Z" fill="#1A1A1A"/>
<path d="M0 19.0581V5.72205e-06H3.12815V19.0581H0Z" fill="#1A1A1A"/>
</svg>
